#N canvas 423 50 767 614 10;
#X declare -lib mrpeach;
#X obj 28 39 cnv 15 100 100 empty empty DSP 20 12 0 14 -232576 -45076
0;
#X msg 49 96 \; pd dsp \$1;
#X obj 49 66 tgl 15 0 empty empty empty 17 7 0 10 -262144 -1 -1 0 1
;
#X obj 296 37 cnv 15 310 100 empty empty GERADOR_GENÉTICO 20 12 0
14 -204786 -13381 0;
#N canvas 101 108 1213 443 mapcrom 0;
#X obj 30 384 s t1;
#X obj 174 386 s t2;
#X obj 318 387 s t3;
#X obj 30 62 bng 15 250 50 0 empty empty empty 17 7 0 10 -262144 -1
-1;
#X obj 30 36 metro 500;
#X obj 30 13 tgl 15 0 empty empty empty 17 7 0 10 -262144 -1 -1 0 1
;
#X obj 174 311 tabread populacao;
#X obj 30 311 tabread populacao;
#X obj 318 311 tabread populacao;
#X obj 462 311 tabread populacao;
#X obj 606 311 tabread populacao;
#X obj 750 311 tabread populacao;
#X obj 894 311 tabread populacao;
#X obj 1038 311 tabread populacao;
#X obj 30 88 t b b b b b b b b;
#X obj 462 388 s o1;
#X obj 606 389 s o2;
#X obj 1038 395 s d3;
#X obj 750 393 s d1;
#X obj 894 393 s d2;
#X obj 30 -10 inlet;
#X obj 81 13 inlet;
#X obj 33 291 hsl 128 15 0 7 0 0 empty empty empty -2 -8 0 10 -261234
-1 -1 0 1;
#X obj 177 291 hsl 128 15 7.1 15 0 0 empty empty empty -2 -8 0 10 -261234
-1 -1 0 1;
#X obj 321 291 hsl 128 15 15.1 23 0 0 empty empty empty -2 -8 0 10
-261234 -1 -1 0 1;
#X obj 465 291 hsl 128 15 23.1 31 0 0 empty empty empty -2 -8 0 10
-261682 -1 -1 0 1;
#X obj 609 291 hsl 128 15 31.1 39 0 0 empty empty empty -2 -8 0 10
-261682 -1 -1 0 1;
#X obj 753 291 hsl 128 15 39.1 47 0 0 empty empty empty -2 -8 0 10
-204786 -1 -1 0 1;
#X obj 897 291 hsl 128 15 47.1 55 0 0 empty empty empty -2 -8 0 10
-204786 -1 -1 0 1;
#X obj 1041 291 hsl 128 15 55.1 63 0 0 empty empty empty -2 -8 0 10
-204786 -1 -1 0 1;
#X obj 30 361 expr $f2 + $f1*$f3;
#X obj 82 336 r p1;
#X obj 115 336 r p2;
#X obj 174 363 expr $f2 + $f1*$f3;
#X obj 318 364 expr $f2 + $f1*$f3;
#X obj 462 365 expr $f2 + $f1*$f3;
#X obj 606 366 expr $f2 + $f1*$f3;
#X obj 750 369 expr $f2 + $f1*$f3;
#X obj 894 371 expr $f2 + $f1*$f3;
#X obj 1038 372 expr $f2 + $f1*$f3;
#X obj 226 336 r p3;
#X obj 259 336 r p4;
#X obj 370 337 r p5;
#X obj 403 337 r p6;
#X obj 514 337 r p7;
#X obj 658 338 r p9;
#X obj 690 338 r p10;
#X obj 802 339 r p11;
#X obj 840 339 r p12;
#X obj 946 339 r p13;
#X obj 984 339 r p14;
#X obj 1090 338 r p15;
#X obj 1128 338 r p16;
#X obj 546 337 r p8;
#N canvas 647 89 604 528 receptorOSC 0;
#X obj 192 12 declare -lib mrpeach;
#X obj 193 79 osc/unpackOSC;
#X obj 193 116 osc/routeOSC /accelerometer;
#X obj 193 150 unpack f f f;
#X floatatom 64 188 5 0 0 0 - - -, f 5;
#X floatatom 227 187 5 0 0 0 - - -, f 5;
#X floatatom 399 183 5 0 0 0 - - -, f 5;
#X floatatom 66 257 5 0 0 0 - - -, f 5;
#X obj 66 230 maxlib/scale 0 127 0 7;
#X obj 66 281 s osc1;
#X floatatom 38 337 5 0 0 0 - - -, f 5;
#X floatatom 9 418 5 0 0 0 - - -, f 5;
#X floatatom 241 259 5 0 0 0 - - -, f 5;
#X floatatom 213 339 5 0 0 0 - - -, f 5;
#X floatatom 184 420 5 0 0 0 - - -, f 5;
#X floatatom 422 258 5 0 0 0 - - -, f 5;
#X floatatom 391 338 5 0 0 0 - - -, f 5;
#X obj 38 311 maxlib/scale 0 127 23.1 31;
#X obj 213 313 maxlib/scale 0 127 31.1 39;
#X obj 391 312 maxlib/scale 0 127 39.1 47;
#X obj 9 392 maxlib/scale 0 127 47.1 55;
#X obj 184 394 maxlib/scale 0 127 55.1 63;
#X obj 241 283 s osc2;
#X obj 422 282 s osc3;
#X obj 38 361 s osc4;
#X obj 213 363 s osc5;
#X obj 391 362 s osc6;
#X obj 9 442 s osc7;
#X obj 184 444 s osc8;
#X text 50 187 X;
#X obj 241 231 maxlib/scale 0 127 7.1 15;
#X text 213 187 Y;
#X text 384 183 Z;
#X obj 422 231 maxlib/scale 0 127 15.1 23;
#X obj 193 45 mrpeach/udpreceive 8000;
#X connect 1 0 2 0;
#X connect 2 0 3 0;
#X connect 3 0 4 0;
#X connect 3 1 5 0;
#X connect 3 2 6 0;
#X connect 4 0 8 0;
#X connect 4 0 17 0;
#X connect 4 0 20 0;
#X connect 5 0 18 0;
#X connect 5 0 21 0;
#X connect 5 0 30 0;
#X connect 6 0 19 0;
#X connect 6 0 33 0;
#X connect 7 0 9 0;
#X connect 8 0 7 0;
#X connect 10 0 24 0;
#X connect 11 0 27 0;
#X connect 12 0 22 0;
#X connect 13 0 25 0;
#X connect 14 0 28 0;
#X connect 15 0 23 0;
#X connect 16 0 26 0;
#X connect 17 0 10 0;
#X connect 18 0 13 0;
#X connect 19 0 16 0;
#X connect 20 0 11 0;
#X connect 21 0 14 0;
#X connect 30 0 12 0;
#X connect 33 0 15 0;
#X connect 34 0 1 0;
#X restore 840 56 pd receptorOSC;
#X obj 688 94 r osc1;
#X obj 738 94 r osc2;
#X obj 788 94 r osc3;
#X obj 838 94 r osc4;
#X obj 889 94 r osc5;
#X obj 938 94 r osc6;
#X obj 988 94 r osc7;
#X obj 1038 94 r osc8;
#X connect 3 0 14 0;
#X connect 4 0 3 0;
#X connect 5 0 4 0;
#X connect 6 0 33 0;
#X connect 7 0 30 0;
#X connect 8 0 34 0;
#X connect 9 0 35 0;
#X connect 10 0 36 0;
#X connect 11 0 37 0;
#X connect 12 0 38 0;
#X connect 13 0 39 0;
#X connect 14 0 22 0;
#X connect 14 1 23 0;
#X connect 14 2 24 0;
#X connect 14 3 25 0;
#X connect 14 4 26 0;
#X connect 14 5 27 0;
#X connect 14 6 28 0;
#X connect 14 7 29 0;
#X connect 20 0 5 0;
#X connect 21 0 4 1;
#X connect 22 0 7 0;
#X connect 23 0 6 0;
#X connect 24 0 8 0;
#X connect 25 0 9 0;
#X connect 26 0 10 0;
#X connect 27 0 11 0;
#X connect 28 0 12 0;
#X connect 29 0 13 0;
#X connect 30 0 0 0;
#X connect 31 0 30 1;
#X connect 32 0 30 2;
#X connect 33 0 1 0;
#X connect 34 0 2 0;
#X connect 35 0 15 0;
#X connect 36 0 16 0;
#X connect 37 0 18 0;
#X connect 38 0 19 0;
#X connect 39 0 17 0;
#X connect 40 0 33 1;
#X connect 41 0 33 2;
#X connect 42 0 34 1;
#X connect 43 0 34 2;
#X connect 44 0 35 1;
#X connect 45 0 36 1;
#X connect 46 0 36 2;
#X connect 47 0 37 1;
#X connect 48 0 37 2;
#X connect 49 0 38 1;
#X connect 50 0 38 2;
#X connect 51 0 39 1;
#X connect 52 0 39 2;
#X connect 53 0 35 2;
#X connect 55 0 22 0;
#X connect 56 0 23 0;
#X connect 57 0 24 0;
#X connect 58 0 25 0;
#X connect 59 0 26 0;
#X connect 60 0 27 0;
#X connect 61 0 28 0;
#X connect 62 0 29 0;
#X restore 315 112 pd mapcrom;
#N canvas 923 114 420 282 evolucao 0;
#N canvas 0 50 450 250 (subpatch) 0;
#X array populacao 80 float 5;
#A 0 0.5 0.5 0.5 0.5 0.5 0.5 0.5 0.5 0 0 1 1 0.5 1 0.666667 0.666667
0.666667 0.666667 0.666667 0.666667 0.666667 0.666667 0 0 0.354994
0 0.354994 0.0824692 0.833333 0.833333 0.833333 0.833333 0.833333 0.833333
0.833333 0.833333 0 0.00680118 0.00680118 1 0.00125965 0 1 1 1 1 1
1 1 1 0.5 1 0 0.5 0.25 0.5 0.333333 0.333333 0.333333 0.333333 0.333333
0.333333 0.333333 0.333333 1 0.75 1 0.75 0 0 0.666667 0.666667 0.666667
0.666667 0.666667 0.666667 0.666667 0.666667 0.5 0;
#X coords 0 1 79 -1 200 140 1 0 0;
#X restore 105 112 graph;
#X obj 30 28 inlet;
#X obj 113 28 inlet;
#X obj 211 28 inlet;
#N canvas 0 50 1007 696 crossover 0;
#X obj 162 -80 random 10;
#X obj 163 4 until;
#X obj 193 27 + 1;
#X obj 427 -2 until;
#X obj 457 23 + 1;
#X obj 161 -48 t b f f;
#X obj 425 -80 random 10;
#X obj 117 -195 inlet;
#X obj 138 111 tabwrite mob-gene1;
#X obj 413 115 tabwrite mob-gene2;
#X obj 426 -53 t b f f f;
#X obj 134 197 until;
#X obj 164 218 + 1;
#X obj 132 297 tabread mob-gene1;
#X obj 163 52 t f f;
#X obj 427 50 t f f;
#X obj 163 27 f;
#X obj 427 23 f;
#X msg 163 172 0;
#X obj 134 218 f;
#X obj 132 329 expr $f1*$f3 + $f2*(1 -$f3);
#X obj 561 -125 random 1000;
#X obj 556 312 / 1000;
#X obj 133 240 t f f f;
#X obj 261 296 tabread mob-gene2;
#X obj -15 -127 s refresh-comp;
#X obj 132 142 t b b;
#X obj 117 -145 t b b b b b;
#X obj 58 -174 bng 15 250 50 0 empty empty empty 17 7 0 10 -262144
-1 -1;
#X obj 249 250 print;
#X obj 45 340 print mg1;
#X obj 493 377 print mg2;
#X obj 132 384 tabwrite populacao;
#X msg 133 172 8;
#X msg 162 -23 8;
#X msg 426 -28 8;
#X obj 199 -180 table mob-gene1 8;
#X obj 198 -160 table mob-gene2 8;
#X obj 287 94 tabread populacao;
#X obj 531 99 tabread populacao;
#X obj 531 69 expr $f1 +8*$f2;
#X obj 286 66 expr $f1 + 8*$f2;
#X obj 289 366 expr $f1 + 8*$f2;
#X connect 0 0 5 0;
#X connect 1 0 16 0;
#X connect 2 0 16 1;
#X connect 3 0 17 0;
#X connect 4 0 17 1;
#X connect 5 0 34 0;
#X connect 5 1 16 1;
#X connect 5 2 41 1;
#X connect 6 0 10 0;
#X connect 7 0 27 0;
#X connect 10 0 35 0;
#X connect 10 1 17 1;
#X connect 10 2 40 1;
#X connect 10 3 42 1;
#X connect 11 0 19 0;
#X connect 12 0 19 1;
#X connect 13 0 20 0;
#X connect 13 0 30 0;
#X connect 14 0 8 1;
#X connect 14 1 41 0;
#X connect 15 0 9 1;
#X connect 15 1 40 0;
#X connect 16 0 2 0;
#X connect 16 0 14 0;
#X connect 17 0 4 0;
#X connect 17 0 15 0;
#X connect 18 0 19 1;
#X connect 19 0 12 0;
#X connect 19 0 23 0;
#X connect 20 0 32 0;
#X connect 21 0 22 0;
#X connect 22 0 20 2;
#X connect 23 0 13 0;
#X connect 23 1 24 0;
#X connect 23 2 24 0;
#X connect 23 2 29 0;
#X connect 23 2 42 0;
#X connect 24 0 20 1;
#X connect 24 0 31 0;
#X connect 26 0 33 0;
#X connect 26 1 18 0;
#X connect 27 0 25 0;
#X connect 27 1 26 0;
#X connect 27 2 0 0;
#X connect 27 3 6 0;
#X connect 27 4 21 0;
#X connect 28 0 27 0;
#X connect 33 0 11 0;
#X connect 34 0 1 0;
#X connect 35 0 3 0;
#X connect 38 0 8 0;
#X connect 39 0 9 0;
#X connect 40 0 39 0;
#X connect 41 0 38 0;
#X connect 42 0 32 1;
#X restore 113 48 pd crossover;
#N canvas 566 250 475 323 mutation 0;
#X obj -286 -84 inlet;
#X obj -268 32 until;
#X obj -238 57 + 1;
#X msg -228 9 0;
#X obj -268 82 t b f;
#X obj -75 94 random 10;
#X obj -371 27 s refresh-comp;
#X obj -267 107 random 5;
#X obj -266 132 / 4;
#X obj -268 57 f 0;
#X obj -268 -19 t b b;
#X obj -287 -40 t b b b;
#X msg -269 7 8;
#X obj -173 124 expr $f1 + 8*$f2;
#X obj -266 161 tabwrite populacao;
#X obj -122 -65 bng 15 250 50 0 empty empty empty 17 7 0 10 -262144
-1 -1;
#X connect 0 0 15 0;
#X connect 1 0 9 0;
#X connect 2 0 9 1;
#X connect 3 0 9 1;
#X connect 4 0 7 0;
#X connect 4 1 13 0;
#X connect 5 0 13 1;
#X connect 7 0 8 0;
#X connect 8 0 14 0;
#X connect 9 0 2 0;
#X connect 9 0 4 0;
#X connect 10 0 12 0;
#X connect 10 1 3 0;
#X connect 11 0 6 0;
#X connect 11 1 10 0;
#X connect 11 2 5 0;
#X connect 12 0 1 0;
#X connect 13 0 14 1;
#X connect 15 0 11 0;
#X restore 211 48 pd mutation;
#N canvas 162 93 335 487 new-pop 0;
#X obj 117 205 until;
#X obj 147 230 + 1;
#X msg 163 198 0;
#X obj 117 230 f 0;
#X obj 86 14 inlet;
#X obj 8 183 s refresh-comp;
#X obj 114 142 t b b;
#X obj 87 90 t b b;
#X obj 88 53 bng 15 250 50 0 empty empty empty 17 7 0 10 -262144 -1
-1;
#X obj 136 19 loadbang;
#X msg 116 180 10;
#X obj 104 314 until;
#X obj 134 339 + 1;
#X msg 142 297 0;
#X obj 104 339 f 0;
#X obj 202 392 expr $f1+ 14*$f2;
#X obj 112 413 f 0.5;
#X obj 110 374 t b f;
#X obj 118 257 t b f b;
#X obj 165 371 random 7;
#X obj 165 396 / 6;
#X obj 114 439 tabwrite populacao;
#X msg 103 289 8;
#X connect 0 0 3 0;
#X connect 1 0 3 1;
#X connect 2 0 3 1;
#X connect 3 0 1 0;
#X connect 3 0 18 0;
#X connect 4 0 8 0;
#X connect 6 0 10 0;
#X connect 6 1 2 0;
#X connect 7 0 5 0;
#X connect 7 1 6 0;
#X connect 8 0 7 0;
#X connect 9 0 7 0;
#X connect 10 0 0 0;
#X connect 11 0 14 0;
#X connect 12 0 14 1;
#X connect 13 0 14 1;
#X connect 14 0 12 0;
#X connect 14 0 17 0;
#X connect 15 0 21 1;
#X connect 16 0 21 0;
#X connect 17 0 16 0;
#X connect 17 1 15 0;
#X connect 18 0 22 0;
#X connect 18 0 13 0;
#X connect 18 1 15 1;
#X connect 18 2 19 0;
#X connect 19 0 20 0;
#X connect 20 0 16 1;
#X connect 22 0 11 0;
#X restore 30 48 pd new-pop;
#N canvas 516 205 451 375 power-pop 0;
#X obj -203 -129 until;
#X obj -173 -104 + 1;
#X msg -157 -136 0;
#X obj -225 -293 inlet;
#X obj -303 -124 s refresh-comp;
#X obj -206 -192 t b b;
#X obj -203 -104 f 0;
#X obj -203 -79 t f f;
#X obj -203 -28 pow 2;
#X obj -224 -221 t b b b;
#X obj -99 -148 + 1.2;
#X obj -99 -202 random 7;
#X obj -98 -175 / 5;
#X obj -105 -290 inlet;
#X msg -204 -154 80;
#X obj -203 -54 tabread populacao;
#X obj -203 -4 tabwrite populacao;
#X obj 23 -228 bng 15 250 50 0 empty empty empty 17 7 0 10 -262144
-1 -1;
#X connect 0 0 6 0;
#X connect 1 0 6 1;
#X connect 2 0 6 1;
#X connect 3 0 17 0;
#X connect 5 0 14 0;
#X connect 5 1 2 0;
#X connect 6 0 1 0;
#X connect 6 0 7 0;
#X connect 7 0 15 0;
#X connect 7 1 16 1;
#X connect 8 0 16 0;
#X connect 9 0 4 0;
#X connect 9 1 5 0;
#X connect 9 2 11 0;
#X connect 10 0 8 1;
#X connect 11 0 12 0;
#X connect 12 0 10 0;
#X connect 13 0 8 1;
#X connect 14 0 0 0;
#X connect 15 0 8 0;
#X connect 17 0 9 0;
#X restore 302 48 pd power-pop;
#X obj 302 28 inlet;
#X connect 1 0 6 0;
#X connect 2 0 4 0;
#X connect 3 0 5 0;
#X connect 8 0 7 0;
#X restore 461 109 pd evolucao;
#X obj 424 70 bng 30 250 50 0 empty empty NEW 0 -5 0 10 -4034 -1 -1
;
#X obj 466 70 bng 30 250 50 0 empty empty CROSS 0 -5 0 10 -257985 -1
-1;
#X obj 507 70 bng 30 250 50 0 empty empty MUTA 0 -5 0 10 -159808 -1
-1;
#X obj 548 70 bng 30 250 50 0 empty empty POWER 0 -5 0 10 -260097 -1
-1;
#X obj 315 71 tgl 30 0 empty empty START 0 -5 0 10 -258113 -1 -1 0
1;
#X floatatom 372 86 5 0 0 0 - - -, f 5;
#X obj 164 38 cnv 15 100 100 empty empty TESTE 20 12 0 14 -204800 -16662
0;
#N canvas 816 245 298 231 testesom 0;
#X obj 91 75 openpanel;
#X msg 91 100 open \$1;
#X obj 91 139 readsf~ 2;
#X msg 167 101 start;
#X msg 222 102 stop;
#X obj 91 46 bng 20 250 50 0 empty empty empty 17 7 0 12 -258113 -257985
-257985;
#X obj 189 179 bng 15 250 50 0 empty empty empty 17 7 0 10 -262144
-1 -1;
#X obj 91 19 inlet;
#X obj 167 73 inlet;
#X obj 222 74 inlet;
#X obj 33 178 s~ audio1;
#X obj 116 178 s~ audio2;
#X connect 0 0 1 0;
#X connect 1 0 2 0;
#X connect 2 0 10 0;
#X connect 2 1 11 0;
#X connect 2 2 6 0;
#X connect 3 0 2 0;
#X connect 4 0 2 0;
#X connect 5 0 0 0;
#X connect 7 0 5 0;
#X connect 8 0 3 0;
#X connect 9 0 4 0;
#X restore 178 106 pd testesom;
#X obj 178 76 bng 15 250 50 0 empty empty select -6 -5 0 10 -257985
-1 -1;
#X obj 209 76 bng 15 250 50 0 empty empty play -1 -6 0 10 -4034 -1
-1;
#X obj 241 76 bng 15 250 50 0 empty empty stop -2 -6 0 10 -258113 -1
-1;
#N canvas 187 98 1071 602 listaPresset 0;
#X obj 300 85 cnv 15 580 150 empty empty empty 20 12 0 14 -261682 -66577
0;
#X obj 431 190 bng 30 250 50 0 empty empty NOVO 33 15 0 15 -257985
-1 -1;
#X obj 245 332 savepanel;
#X obj 190 496 textfile;
#X obj 647 440 list-abs/list-l2s;
#X floatatom 427 252 5 0 0 0 - - -, f 5;
#X floatatom 462 252 5 0 0 0 - - -, f 5;
#X floatatom 497 252 5 0 0 0 - - -, f 5;
#X floatatom 532 252 5 0 0 0 - - -, f 5;
#X floatatom 567 252 5 0 0 0 - - -, f 5;
#X floatatom 602 252 5 0 0 0 - - -, f 5;
#X floatatom 636 252 5 0 0 0 - - -, f 5;
#X floatatom 671 252 5 0 0 0 - - -, f 5;
#X floatatom 706 252 5 0 0 0 - - -, f 5;
#X floatatom 741 252 5 0 0 0 - - -, f 5;
#X floatatom 776 252 5 0 0 0 - - -, f 5;
#X floatatom 811 252 5 0 0 0 - - -, f 5;
#X floatatom 846 252 5 0 0 0 - - -, f 5;
#X floatatom 881 252 5 0 0 0 - - -, f 5;
#X floatatom 916 252 5 0 0 0 - - -, f 5;
#X msg 198 296 clear;
#X obj 387 305 bng 15 250 50 0 empty empty empty 17 7 0 10 -262144
-1 -1;
#X obj 531 49 bng 15 250 50 0 empty empty empty 17 7 0 10 -262144 -1
-1;
#X obj 260 32 t b b;
#X obj 313 115 bng 30 250 50 0 empty empty GRAVAR 33 15 0 15 -258113
-1 -1;
#X obj 431 153 bng 30 250 50 0 empty empty APAGAR 33 15 0 15 -4160
-1 -1;
#X obj 552 93 vsl 15 128 0.01 30 0 0 empty empty empty 0 -9 0 10 -261234
-1 -1 0 0;
#X obj 573 93 vsl 15 128 0.01 1 0 0 empty empty empty 0 -9 0 10 -258113
-1 -1 0 0;
#X obj 594 93 vsl 15 128 0.01 0.5 0 0 empty empty empty 0 -9 0 10 -261234
-1 -1 0 0;
#X obj 614 93 vsl 15 128 0.01 1 0 0 empty empty empty 0 -9 0 10 -258113
-1 -1 0 0;
#X obj 634 93 vsl 15 128 0.01 1 0 0 empty empty empty 0 -9 0 10 -261234
-1 -1 0 0;
#X obj 654 93 vsl 15 128 0.01 1 0 0 empty empty empty 0 -9 0 10 -260097
-1 -1 0 0;
#X obj 674 93 vsl 15 128 0.01 0.999 0 0 empty empty empty 0 -9 0 10
-261682 -1 -1 0 0;
#X obj 694 93 vsl 15 128 0.01 1 0 0 empty empty empty 0 -9 0 10 -260097
-1 -1 0 0;
#X obj 714 93 vsl 15 128 0.01 1 0 0 empty empty empty 0 -9 0 10 -261682
-1 -1 0 0;
#X obj 734 93 vsl 15 128 0.01 1 0 0 empty empty empty 0 -9 0 10 -4034
-1 -1 0 0;
#X obj 754 93 vsl 15 128 0.01 0.99 0 0 empty empty empty 0 -9 0 10
-204786 -1 -1 0 0;
#X obj 774 93 vsl 15 128 0.01 1 0 0 empty empty empty 0 -9 0 10 -4034
-1 -1 0 0;
#X obj 794 93 vsl 15 128 0.01 0.99 0 0 empty empty empty 0 -9 0 10
-204786 -1 -1 0 0;
#X obj 814 93 vsl 15 128 0.01 1 0 0 empty empty empty 0 -9 0 10 -4034
-1 -1 0 0;
#X obj 834 93 vsl 15 128 0.01 1 0 1 empty empty empty 0 -9 0 10 -204786
-1 -1 1100 0;
#X obj 531 93 vsl 15 128 0.01 1 0 0 empty empty empty 0 -9 0 10 -258113
-1 -1 0 0;
#X msg 245 357 write \$1;
#X msg 123 350 rewind;
#X obj 30 185 until;
#X obj 430 116 bng 30 250 50 0 empty empty LER 33 15 0 15 -260097 -1
-1;
#X msg 32 336 bang;
#X obj 235 521 bng 15 250 50 0 empty empty empty 17 7 0 10 -262144
-1 -1;
#X floatatom 951 253 5 0 0 0 - - -, f 5;
#X obj 413 320 pack f f f f f f f f f f f f f f f f f;
#X obj 123 280 openpanel;
#X msg 123 303 read \$1;
#X obj 123 327 t b;
#X obj 190 544 tabwrite presset;
#N canvas 0 50 450 250 (subpatch) 0;
#X array presset 16 float 2;
#X coords 0 30 16 0 200 140 1 0 0;
#X restore 827 417 graph;
#X obj 313 155 bng 30 250 50 0 empty empty PRESSET 33 15 0 15 -4032
-1 -1;
#X msg 296 410 add \$1;
#N canvas 219 186 407 398 leitorpresset 0;
#X obj 178 9 inlet;
#X obj 4 102 tabread presset;
#X msg 4 80 0;
#X obj 4 124 s pr16;
#X obj 104 102 tabread presset;
#X obj 204 102 tabread presset;
#X obj 304 102 tabread presset;
#X obj 4 182 tabread presset;
#X obj 104 182 tabread presset;
#X obj 204 182 tabread presset;
#X obj 304 182 tabread presset;
#X obj 4 262 tabread presset;
#X obj 104 262 tabread presset;
#X obj 204 262 tabread presset;
#X obj 304 262 tabread presset;
#X obj 4 342 tabread presset;
#X obj 104 342 tabread presset;
#X obj 204 342 tabread presset;
#X obj 304 342 tabread presset;
#X msg 104 80 1;
#X msg 204 80 2;
#X msg 304 79 3;
#X msg 4 160 4;
#X msg 104 160 5;
#X msg 204 160 6;
#X msg 304 160 7;
#X msg 4 240 8;
#X msg 104 240 9;
#X msg 204 240 10;
#X msg 304 239 11;
#X msg 4 320 12;
#X msg 104 320 13;
#X msg 204 320 14;
#X msg 304 320 15;
#X obj 104 124 s pr15;
#X obj 204 124 s pr14;
#X obj 304 124 s pr13;
#X obj 4 204 s pr12;
#X obj 104 204 s pr11;
#X obj 204 204 s pr10;
#X obj 304 204 s pr9;
#X obj 4 284 s pr8;
#X obj 104 284 s pr7;
#X obj 204 284 s pr6;
#X obj 304 284 s pr5;
#X obj 4 364 s pr4;
#X obj 104 364 s pr3;
#X obj 204 364 s pr2;
#X obj 304 364 s pr1;
#X connect 0 0 2 0;
#X connect 0 0 19 0;
#X connect 0 0 20 0;
#X connect 0 0 21 0;
#X connect 0 0 22 0;
#X connect 0 0 23 0;
#X connect 0 0 24 0;
#X connect 0 0 25 0;
#X connect 0 0 26 0;
#X connect 0 0 27 0;
#X connect 0 0 30 0;
#X connect 0 0 31 0;
#X connect 0 0 28 0;
#X connect 0 0 29 0;
#X connect 0 0 32 0;
#X connect 0 0 33 0;
#X connect 1 0 3 0;
#X connect 2 0 1 0;
#X connect 4 0 34 0;
#X connect 5 0 35 0;
#X connect 6 0 36 0;
#X connect 7 0 37 0;
#X connect 8 0 38 0;
#X connect 9 0 39 0;
#X connect 10 0 40 0;
#X connect 11 0 41 0;
#X connect 12 0 42 0;
#X connect 13 0 43 0;
#X connect 14 0 44 0;
#X connect 15 0 45 0;
#X connect 16 0 46 0;
#X connect 17 0 47 0;
#X connect 18 0 48 0;
#X connect 19 0 4 0;
#X connect 20 0 5 0;
#X connect 21 0 6 0;
#X connect 22 0 7 0;
#X connect 23 0 8 0;
#X connect 24 0 9 0;
#X connect 25 0 10 0;
#X connect 26 0 11 0;
#X connect 27 0 12 0;
#X connect 28 0 13 0;
#X connect 29 0 14 0;
#X connect 30 0 15 0;
#X connect 31 0 16 0;
#X connect 32 0 17 0;
#X connect 33 0 18 0;
#X restore 83 185 pd leitorpresset;
#X obj 669 21 r pr1;
#X obj 714 21 r pr2;
#X obj 760 21 r pr3;
#X obj 806 21 r pr4;
#X obj 852 21 r pr5;
#X obj 898 21 r pr6;
#X obj 945 21 r pr7;
#X obj 990 21 r pr8;
#X obj 669 44 r pr9;
#X obj 714 44 r pr10;
#X obj 760 44 r pr11;
#X obj 806 44 r pr12;
#X obj 851 44 r pr13;
#X obj 897 44 r pr14;
#X obj 943 44 r pr15;
#X obj 989 44 r pr16;
#X obj 682 324 s p1;
#X obj 727 324 s p2;
#X obj 773 324 s p3;
#X obj 819 324 s p4;
#X obj 865 324 s p5;
#X obj 911 324 s p6;
#X obj 958 324 s p7;
#X obj 1003 324 s p8;
#X obj 682 347 s p9;
#X obj 727 347 s p10;
#X obj 773 347 s p11;
#X obj 819 347 s p12;
#X obj 864 347 s p13;
#X obj 910 347 s p14;
#X obj 956 347 s p15;
#X obj 1002 347 s p16;
#X obj 413 349 unpack f f f f f f f f f f f f f f f f f;
#X msg 30 162 16;
#X text 462 424 para fazer o 'list 2 symbol' funcionar precisa instalar
a biblioteca "list-abs";
#X obj 65 210 + 1;
#X floatatom 32 271 5 0 0 0 - - -, f 5;
#X obj 29 246 mod 16;
#X obj 31 210 f 0;
#X obj 332 441 + 1;
#X floatatom 299 502 5 0 0 0 - - -, f 5;
#X obj 298 441 f 0;
#X obj 32 291 t b b;
#X obj 296 477 mod 16;
#X obj 314 195 bng 15 250 50 0 empty empty INICIO_PRESSET 17 7 0 10
-204800 -1 -1;
#X msg 185 266 rewind;
#X symbolatom 312 216 10 0 0 0 - aviso -, f 10;
#X obj 351 538 s aviso;
#X msg 366 512 symbol fim lista;
#X obj 226 279 s aviso;
#X msg 242 253 symbol ok;
#X connect 1 0 2 0;
#X connect 2 0 42 0;
#X connect 3 0 53 0;
#X connect 3 1 47 0;
#X connect 5 0 49 1;
#X connect 5 0 74 0;
#X connect 6 0 49 2;
#X connect 6 0 75 0;
#X connect 7 0 49 3;
#X connect 7 0 76 0;
#X connect 8 0 49 4;
#X connect 8 0 77 0;
#X connect 9 0 49 5;
#X connect 9 0 78 0;
#X connect 10 0 49 6;
#X connect 10 0 79 0;
#X connect 11 0 49 7;
#X connect 11 0 80 0;
#X connect 12 0 49 8;
#X connect 12 0 81 0;
#X connect 13 0 49 9;
#X connect 13 0 82 0;
#X connect 14 0 49 10;
#X connect 14 0 83 0;
#X connect 15 0 49 11;
#X connect 15 0 84 0;
#X connect 16 0 49 12;
#X connect 16 0 85 0;
#X connect 17 0 49 13;
#X connect 17 0 86 0;
#X connect 18 0 49 14;
#X connect 18 0 87 0;
#X connect 19 0 49 15;
#X connect 19 0 88 0;
#X connect 20 0 3 0;
#X connect 21 0 49 0;
#X connect 22 0 31 0;
#X connect 22 0 30 0;
#X connect 22 0 29 0;
#X connect 22 0 28 0;
#X connect 22 0 27 0;
#X connect 22 0 26 0;
#X connect 22 0 41 0;
#X connect 22 0 32 0;
#X connect 22 0 33 0;
#X connect 22 0 34 0;
#X connect 22 0 35 0;
#X connect 22 0 36 0;
#X connect 22 0 37 0;
#X connect 22 0 38 0;
#X connect 22 0 39 0;
#X connect 22 0 40 0;
#X connect 23 0 21 0;
#X connect 23 1 22 0;
#X connect 24 0 23 0;
#X connect 25 0 20 0;
#X connect 26 0 6 0;
#X connect 27 0 7 0;
#X connect 28 0 8 0;
#X connect 29 0 9 0;
#X connect 30 0 10 0;
#X connect 31 0 11 0;
#X connect 32 0 12 0;
#X connect 33 0 13 0;
#X connect 34 0 14 0;
#X connect 35 0 15 0;
#X connect 36 0 16 0;
#X connect 37 0 17 0;
#X connect 38 0 18 0;
#X connect 39 0 19 0;
#X connect 40 0 48 0;
#X connect 41 0 5 0;
#X connect 42 0 3 0;
#X connect 43 0 3 0;
#X connect 44 0 96 0;
#X connect 45 0 50 0;
#X connect 46 0 3 0;
#X connect 47 0 106 0;
#X connect 48 0 49 16;
#X connect 48 0 89 0;
#X connect 49 0 90 0;
#X connect 50 0 51 0;
#X connect 51 0 3 0;
#X connect 51 0 52 0;
#X connect 52 0 43 0;
#X connect 55 0 91 0;
#X connect 55 0 57 0;
#X connect 56 0 3 0;
#X connect 58 0 41 0;
#X connect 59 0 26 0;
#X connect 60 0 27 0;
#X connect 61 0 28 0;
#X connect 62 0 29 0;
#X connect 63 0 30 0;
#X connect 64 0 31 0;
#X connect 65 0 32 0;
#X connect 66 0 33 0;
#X connect 67 0 34 0;
#X connect 68 0 35 0;
#X connect 69 0 36 0;
#X connect 70 0 37 0;
#X connect 71 0 38 0;
#X connect 72 0 39 0;
#X connect 73 0 40 0;
#X connect 90 1 56 0;
#X connect 90 2 56 0;
#X connect 90 3 56 0;
#X connect 90 4 56 0;
#X connect 90 5 56 0;
#X connect 90 6 56 0;
#X connect 90 7 56 0;
#X connect 90 8 56 0;
#X connect 90 9 56 0;
#X connect 90 10 56 0;
#X connect 90 11 56 0;
#X connect 90 12 56 0;
#X connect 90 13 56 0;
#X connect 90 14 56 0;
#X connect 90 15 56 0;
#X connect 90 16 56 0;
#X connect 91 0 44 0;
#X connect 93 0 96 1;
#X connect 94 0 100 0;
#X connect 95 0 94 0;
#X connect 96 0 93 0;
#X connect 96 0 95 0;
#X connect 97 0 99 1;
#X connect 98 0 53 1;
#X connect 99 0 97 0;
#X connect 99 0 101 0;
#X connect 100 0 46 0;
#X connect 100 1 99 0;
#X connect 101 0 98 0;
#X connect 102 0 103 0;
#X connect 102 0 108 0;
#X connect 103 0 3 0;
#X connect 106 0 105 0;
#X connect 108 0 107 0;
#X coords 0 -1 1 1 580 150 1 300 85;
#X restore 27 146 pd listaPresset;
#N canvas 870 161 346 484 tremolo 0;
#X obj 15 20 cnv 15 150 180 empty empty TREMOLO 20 12 0 14 -232576
-66577 0;
#X obj 290 318 line~;
#X obj 99 405 *~;
#X obj 73 377 *~;
#X obj 87 274 *~;
#X obj 87 297 +~;
#X obj 141 281 expr~ 1 - $v1;
#X obj 72 405 *~;
#X obj 75 439 dac~;
#X obj 86 252 osc~ 2;
#X obj 141 258 line~;
#X msg 141 234 \$1 50;
#X floatatom 183 257 5 0 0 0 - - -, f 5;
#X obj 38 65 vsl 20 128 0 30 0 0 empty t1 FREQ 0 -15 0 10 -258113 -262144
-4160 0 0;
#X msg 290 295 \$1 50;
#X obj 79 65 vsl 20 128 0 0.5 0 0 empty t2 MOD 0 -15 0 10 -4032 -1
-1 0 0;
#X obj 120 66 vsl 20 128 0 127 0 0 empty t3 VOL 0 -15 0 10 -4034 -1
-1 0 0;
#X obj 19 310 r~ audio1;
#X obj 19 329 r~ audio2;
#X obj 109 439 outlet~;
#X connect 1 0 2 1;
#X connect 2 0 8 0;
#X connect 2 0 8 1;
#X connect 2 0 19 0;
#X connect 3 0 7 0;
#X connect 4 0 5 0;
#X connect 5 0 3 1;
#X connect 6 0 5 1;
#X connect 7 0 8 0;
#X connect 7 0 8 1;
#X connect 7 0 19 0;
#X connect 9 0 4 0;
#X connect 10 0 4 1;
#X connect 10 0 6 0;
#X connect 11 0 10 0;
#X connect 11 0 12 0;
#X connect 13 0 9 0;
#X connect 14 0 1 0;
#X connect 15 0 11 0;
#X connect 16 0 7 1;
#X connect 16 0 14 0;
#X connect 17 0 3 0;
#X connect 18 0 3 0;
#X coords 0 -1 1 1 150 180 1 15 20;
#X restore 27 304 pd tremolo;
#N canvas 836 194 286 447 overdrive 0;
#X obj 15 20 cnv 15 150 180 empty empty OVERDRIVE 20 12 0 14 -261682
-66577 0;
#X obj 55 66 vsl 20 128 0 0.99999 0 0 empty o1 DIST 0 -9 0 10 -232576
-262144 -260097 0 0;
#X obj 146 239 expr 2*$f1/(1-$f1);
#X floatatom 146 263 5 0 0 0 - - -, f 5;
#X obj 8 290 expr~ (1+$f2) * $v1 / 1 + ($f2 *abs($v1));
#X obj 94 376 *~;
#X obj 50 413 dac~;
#X msg 110 325 \$1 50;
#X obj 110 350 line~;
#X obj 7 329 *~ 0.1;
#X obj 103 66 vsl 20 128 0 1 0 0 empty o2 VOL 0 -9 0 10 -204786 -1
-1 0 0;
#X obj 7 239 r~ audio1;
#X obj 18 258 r~ audio2;
#X obj 87 413 outlet~;
#X connect 1 0 2 0;
#X connect 2 0 3 0;
#X connect 3 0 4 1;
#X connect 4 0 9 0;
#X connect 4 0 9 1;
#X connect 5 0 6 0;
#X connect 5 0 6 1;
#X connect 5 0 13 0;
#X connect 7 0 8 0;
#X connect 8 0 5 1;
#X connect 9 0 6 0;
#X connect 9 0 6 1;
#X connect 9 0 13 0;
#X connect 10 0 7 0;
#X connect 10 0 9 1;
#X connect 11 0 4 0;
#X connect 12 0 4 0;
#X coords 0 -1 1 1 150 180 1 15 20;
#X restore 242 306 pd overdrive;
#N canvas 519 114 336 464 distortion 0;
#X obj 15 20 cnv 15 150 180 empty empty DISTORTION 20 12 0 14 -261234
-66577 0;
#X obj 37 66 vsl 20 128 0 0.99 0 0 empty d1 GAIN 0 -9 0 10 -261682
-262144 -4034 0 0;
#X obj 78 66 vsl 20 128 0.99 0 0 0 empty d2 BOOST 0 -9 0 10 -262130
-262144 -1 0 0;
#X obj 190 247 expr 2*$f1 / (1-$f1);
#X floatatom 190 271 5 0 0 0 - - -, f 5;
#X obj 13 306 expr~ (($f2 + $f3) * $v1) / ($f2 + $f3 * abs($v1));
#X obj 116 386 *~;
#X obj 49 425 dac~;
#X msg 132 334 \$1 50;
#X obj 132 359 line~;
#X obj 12 351 *~ 0.1;
#X obj 119 67 vsl 20 128 0 1 0 0 empty d3 VOL 0 -9 0 10 -204786 -1
-1 0 0;
#X obj 12 229 r~ audio1;
#X obj 23 255 r~ audio2;
#X obj 84 425 outlet~;
#X connect 1 0 3 0;
#X connect 2 0 5 1;
#X connect 3 0 4 0;
#X connect 4 0 5 2;
#X connect 5 0 10 0;
#X connect 5 0 10 1;
#X connect 6 0 7 0;
#X connect 6 0 7 1;
#X connect 6 0 14 0;
#X connect 8 0 9 0;
#X connect 9 0 6 1;
#X connect 10 0 7 0;
#X connect 10 0 7 1;
#X connect 10 0 14 0;
#X connect 11 0 8 0;
#X connect 11 0 10 1;
#X connect 12 0 5 0;
#X connect 13 0 5 0;
#X coords 0 -1 1 1 150 180 1 15 20;
#X restore 456 307 pd distortion;
#X obj 28 502 s~ vut;
#X obj 621 38 cnv 15 100 450 empty empty VU_METER 20 12 0 14 -233017
-66577 0;
#X obj 644 186 vu 30 240 empty VUT 17 -8 0 10 -66577 -4034 1 0;
#X obj 643 144 - 100;
#X obj 642 100 r~ vut;
#X obj 643 122 env~;
#X text 271 541 UTILIZAÇÃO:;
#X text 372 510 Versão utilizada apenas para testes utilizar gravação
de guitarra acustica no campo TESTE - select > play;
#X text 373 547 Necessário conectar com o aplicativo "CONTROL" de
OSC app disponível em ANDROID) connectar na mesma rede (verificar
endereço de IP) - set porta '9000';
#X connect 2 0 1 0;
#X connect 6 0 5 0;
#X connect 7 0 5 1;
#X connect 8 0 5 2;
#X connect 9 0 5 3;
#X connect 10 0 4 0;
#X connect 11 0 4 1;
#X connect 14 0 13 0;
#X connect 15 0 13 1;
#X connect 16 0 13 2;
#X connect 18 0 21 0;
#X connect 19 0 21 0;
#X connect 20 0 21 0;
#X connect 24 0 23 0;
#X connect 25 0 26 0;
#X connect 26 0 24 0;
#X coords 0 614 1 613 85 60 0;
